# xmcd
#
# Track frame offsets: 
#        150
#        22695
#        44484
#        70852
#        92727
#        117318
#        140545
#        165483
#        187503
#        216792
#
# Disc length: 3109 seconds
#
# Revision: 0
# Processed by: cddbd v1.5.2PL0 Copyright (c) Steve Scherf et al.
# Submitted via: ExactAudioCopy v1.0b3
#
DISCID=7c0c230a
DTITLE=Manh Quynh, Mong Ngoc - Tinh Tuoi O Mai
DYEAR=1900
DGENRE=
TTITLE0=Mong Ngoc - Tinh tuoi o mai
TTITLE1=Manh Quynh - Dieu chua noi
TTITLE2=Mong Ngoc - Coi hoa
TTITLE3=Mong Ngoc - toi tinh
TTITLE4=Manh Quynh - Bao gio em quen
TTITLE5=Mong Ngoc - Ao anh
TTITLE6=Mong Ngoc - Dem voi minh
TTITLE7=Manh Quynh - Em buon anh thuong
TTITLE8=Mong Ngoc - Ngay xua anh noi
TTITLE9=Mong Ngoc - Nguoi trong mong
EXTD=
EXTT0=
EXTT1=
EXTT2=
EXTT3=
EXTT4=
EXTT5=
EXTT6=
EXTT7=
EXTT8=
EXTT9=
PLAYORDER=
